<mxfile host="Electron" agent="Mozilla/5.0 (X11; Linux x86_64) AppleWebKit/537.36 (KHTML, like Gecko) draw.io/27.0.9 Chrome/134.0.6998.205 Electron/35.4.0 Safari/537.36" version="27.0.9">
  <diagram name="Page-1" id="v81cD49I4lgxzhYtUR1Y">
    <mxGraphModel dx="821" dy="630" grid="1" gridSize="10" guides="1" tooltips="1" connect="1" arrows="1" fold="1" page="1" pageScale="1" pageWidth="850" pageHeight="1100" math="0" shadow="0">
      <root>
        <mxCell id="0" />
        <mxCell id="1" parent="0" />
        <mxCell id="1dt4uuscqXTDECnrqCFc-1" value="&lt;div&gt;Lançamento Semanal&lt;/div&gt;" style="shape=process2;fixedSize=1;size=5;fontStyle=1;html=1;whiteSpace=wrap;" vertex="1" parent="1">
          <mxGeometry x="360" y="200" width="140" height="40" as="geometry" />
        </mxCell>
        <mxCell id="1dt4uuscqXTDECnrqCFc-11" style="edgeStyle=orthogonalEdgeStyle;rounded=0;orthogonalLoop=1;jettySize=auto;html=1;endArrow=classicThin;startFill=0;endFill=1;" edge="1" parent="1" source="1dt4uuscqXTDECnrqCFc-5" target="1dt4uuscqXTDECnrqCFc-8">
          <mxGeometry relative="1" as="geometry" />
        </mxCell>
        <mxCell id="1dt4uuscqXTDECnrqCFc-12" value="1..*" style="edgeLabel;html=1;align=center;verticalAlign=middle;resizable=0;points=[];" vertex="1" connectable="0" parent="1dt4uuscqXTDECnrqCFc-11">
          <mxGeometry x="0.5778" y="4" relative="1" as="geometry">
            <mxPoint x="18" y="-6" as="offset" />
          </mxGeometry>
        </mxCell>
        <mxCell id="1dt4uuscqXTDECnrqCFc-19" value="Vinculado a" style="edgeLabel;html=1;align=center;verticalAlign=middle;resizable=0;points=[];" vertex="1" connectable="0" parent="1dt4uuscqXTDECnrqCFc-11">
          <mxGeometry x="-0.0111" y="2" relative="1" as="geometry">
            <mxPoint y="-8" as="offset" />
          </mxGeometry>
        </mxCell>
        <mxCell id="1dt4uuscqXTDECnrqCFc-21" style="rounded=0;orthogonalLoop=1;jettySize=auto;html=1;exitX=1;exitY=1;exitDx=0;exitDy=0;entryX=0;entryY=0;entryDx=0;entryDy=0;strokeColor=default;endArrow=classicThin;startFill=0;endFill=1;" edge="1" parent="1" source="1dt4uuscqXTDECnrqCFc-5" target="1dt4uuscqXTDECnrqCFc-1">
          <mxGeometry relative="1" as="geometry" />
        </mxCell>
        <mxCell id="1dt4uuscqXTDECnrqCFc-23" value="Pertence" style="edgeLabel;html=1;align=center;verticalAlign=middle;resizable=0;points=[];" vertex="1" connectable="0" parent="1dt4uuscqXTDECnrqCFc-21">
          <mxGeometry x="-0.0949" y="-1" relative="1" as="geometry">
            <mxPoint as="offset" />
          </mxGeometry>
        </mxCell>
        <mxCell id="1dt4uuscqXTDECnrqCFc-5" value="Bolsista" style="shape=process2;fixedSize=1;size=5;fontStyle=1;html=1;whiteSpace=wrap;" vertex="1" parent="1">
          <mxGeometry x="40" y="40" width="140" height="40" as="geometry" />
        </mxCell>
        <mxCell id="1dt4uuscqXTDECnrqCFc-8" value="&lt;div&gt;Projeto Acadêmico&lt;/div&gt;" style="shape=process2;fixedSize=1;size=5;fontStyle=1;html=1;whiteSpace=wrap;" vertex="1" parent="1">
          <mxGeometry x="360" y="40" width="140" height="40" as="geometry" />
        </mxCell>
        <mxCell id="1dt4uuscqXTDECnrqCFc-13" style="edgeStyle=orthogonalEdgeStyle;rounded=0;orthogonalLoop=1;jettySize=auto;html=1;entryX=0.5;entryY=1;entryDx=0;entryDy=0;endArrow=classicThin;startFill=0;endFill=1;" edge="1" parent="1" source="1dt4uuscqXTDECnrqCFc-9" target="1dt4uuscqXTDECnrqCFc-5">
          <mxGeometry relative="1" as="geometry">
            <Array as="points">
              <mxPoint x="110" y="110" />
              <mxPoint x="110" y="110" />
            </Array>
          </mxGeometry>
        </mxCell>
        <mxCell id="1dt4uuscqXTDECnrqCFc-14" value="1..*" style="edgeLabel;html=1;align=center;verticalAlign=middle;resizable=0;points=[];" vertex="1" connectable="0" parent="1dt4uuscqXTDECnrqCFc-13">
          <mxGeometry x="0.1833" y="-1" relative="1" as="geometry">
            <mxPoint x="19" y="-39" as="offset" />
          </mxGeometry>
        </mxCell>
        <mxCell id="1dt4uuscqXTDECnrqCFc-20" value="Supervisiona" style="edgeLabel;html=1;align=center;verticalAlign=middle;resizable=0;points=[];" vertex="1" connectable="0" parent="1dt4uuscqXTDECnrqCFc-13">
          <mxGeometry x="-0.05" y="1" relative="1" as="geometry">
            <mxPoint as="offset" />
          </mxGeometry>
        </mxCell>
        <mxCell id="1dt4uuscqXTDECnrqCFc-15" style="edgeStyle=orthogonalEdgeStyle;rounded=0;orthogonalLoop=1;jettySize=auto;html=1;endArrow=classicThin;startFill=0;endFill=1;" edge="1" parent="1" source="1dt4uuscqXTDECnrqCFc-9" target="1dt4uuscqXTDECnrqCFc-1">
          <mxGeometry relative="1" as="geometry" />
        </mxCell>
        <mxCell id="1dt4uuscqXTDECnrqCFc-16" value="*" style="edgeLabel;html=1;align=center;verticalAlign=middle;resizable=0;points=[];" vertex="1" connectable="0" parent="1dt4uuscqXTDECnrqCFc-15">
          <mxGeometry x="0.7222" y="4" relative="1" as="geometry">
            <mxPoint x="15" y="-6" as="offset" />
          </mxGeometry>
        </mxCell>
        <mxCell id="1dt4uuscqXTDECnrqCFc-17" value="Avalia" style="edgeLabel;html=1;align=center;verticalAlign=middle;resizable=0;points=[];" vertex="1" connectable="0" parent="1dt4uuscqXTDECnrqCFc-15">
          <mxGeometry x="-0.1778" y="2" relative="1" as="geometry">
            <mxPoint x="6" y="-8" as="offset" />
          </mxGeometry>
        </mxCell>
        <mxCell id="1dt4uuscqXTDECnrqCFc-9" value="Orientador" style="shape=process2;fixedSize=1;size=5;fontStyle=1;html=1;whiteSpace=wrap;" vertex="1" parent="1">
          <mxGeometry x="40" y="200" width="140" height="40" as="geometry" />
        </mxCell>
        <mxCell id="1dt4uuscqXTDECnrqCFc-22" value="1" style="text;html=1;align=center;verticalAlign=middle;resizable=0;points=[];autosize=1;strokeColor=none;fillColor=none;" vertex="1" parent="1">
          <mxGeometry x="180" y="68" width="30" height="30" as="geometry" />
        </mxCell>
      </root>
    </mxGraphModel>
  </diagram>
</mxfile>
